<svg fill="none" height="40" viewBox="0 0 154 40" xmlns="http://www.w3.org/2000/svg" class="h-8 flex justify-between items-center shrink-0"><path clip-rule="evenodd" d="M31.344 2.5H8.656A6.156 6.156 0 002.5 8.656v22.688c0 3.4 2.756 6.156 6.156 6.156h22.688c3.4 0 6.156-2.756 6.156-6.156V8.656c0-3.4-2.756-6.156-6.156-6.156zM8.656 0A8.656 8.656 0 000 8.656v22.688A8.656 8.656 0 008.656 40h22.688A8.656 8.656 0 0040 31.344V8.656A8.656 8.656 0 0031.344 0H8.656zm13.142 25.911l-.684.106a.625.625 0 00-.528.653l.042.74c.019.331.293.59.624.59h6.123c.345 0 .625-.28.625-.625v-.771a.625.625 0 00-.488-.61l-1.136-.255-.356-.334a82.88 82.88 0 00-.611-.62 14.714 14.714 0 00-.804-.855l-4.494-4.688 5.645-4.994 1.33-.214a.625.625 0 00.525-.65l-.043-.792a.625.625 0 00-.624-.592h-5.036a.625.625 0 00-.624.59l-.042.745a.625.625 0 00.502.648l.624.124-4.845 4.686-.397.098v-3.29c.017-.53.035-.934.052-1.214l.019-.134 1.26-.27a.625.625 0 00.492-.647l-.042-.746a.625.625 0 00-.623-.59h-5.587a.625.625 0 00-.623.572l-.063.747a.625.625 0 00.494.664l1.242.262.002.146v.03c.018.292.027.706.027 1.248v.017c.018.52.027 1.162.027 1.925v4.804c0 1.123-.009 1.994-.027 2.617-.009.317-.02.555-.032.724l-1.214.261a.625.625 0 00-.492.664l.063.747a.625.625 0 00.623.572h5.48a.625.625 0 00.624-.572l.063-.747a.625.625 0 00-.492-.664l-1.2-.258c-.013-.18-.028-.423-.046-.734a96.74 96.74 0 01-.027-2.61v-1.366h.13l4.033 4.29.01.009c.196.198.361.386.499.563z" fill="currentColor" fill-rule="evenodd"></path><path d="M54 10.954c0-.211.04-.386.119-.524.087-.137.288-.207.605-.207h2.028c.23 0 .396.074.499.22a.738.738 0 01.154.45v10.044l5.22-5.795c.103-.105.206-.186.308-.243a.847.847 0 01.392-.086h2.717c.174 0 .304.037.391.11.087.073.13.17.13.292a.635.635 0 01-.035.22.84.84 0 01-.13.218l-5.327 5.71 6.323 8.012h-.024a.71.71 0 01.178.292c.04.105.06.19.06.255 0 .138-.04.232-.119.28-.079.05-.198.073-.356.073h-3.025c-.23 0-.45-.17-.665-.51l-4.59-6.125-1.424 1.522v4.383a.956.956 0 01-.036.243.714.714 0 01-.119.232.562.562 0 01-.201.182.647.647 0 01-.32.073h-2.1a.557.557 0 01-.297-.073.734.734 0 01-.202-.182.749.749 0 01-.118-.22.737.737 0 01-.036-.194V10.954zM69.768 15.556c0-.21.06-.385.178-.523.118-.146.292-.22.522-.22h1.97c.086 0 .173.02.26.061a.627.627 0 01.25.159c.07.065.13.142.177.23.048.09.071.188.071.293v13.989c0 .487-.249.73-.747.73h-1.97c-.474 0-.711-.243-.711-.73V15.556zm0-5.381c0-.487.233-.73.7-.73h1.993c.221 0 .4.06.534.182s.201.304.201.548v1.814a.886.886 0 01-.19.536.638.638 0 01-.533.243H70.48c-.475 0-.712-.26-.712-.78v-1.813zM77.043 15.532c0-.236.075-.414.225-.536a.821.821 0 01.51-.183h1.507c.198 0 .348.061.451.183.103.122.182.272.237.45.056.18.095.374.119.585.024.203.051.39.083.56.174-.252.368-.495.581-.73.222-.244.471-.46.748-.646.277-.187.589-.337.937-.45.348-.114.743-.17 1.186-.17.396 0 .752.028 1.068.085.317.048.617.13.902.243.292.105.577.248.854.426.277.17.573.373.89.609.134.09.249.19.344.304a.58.58 0 01.154.402c-.008.065-.02.134-.036.207a.658.658 0 01-.094.22l-.973 1.582a.612.612 0 01-.226.183.572.572 0 01-.213.048.757.757 0 01-.368-.097 22.966 22.966 0 01-.712-.414 5.207 5.207 0 00-.629-.329 2.995 2.995 0 00-.64-.219 2.815 2.815 0 00-.724-.085c-.704 0-1.301.231-1.791.694-.483.462-.807 1.1-.973 1.911v9.18c0 .487-.245.73-.736.73H77.78c-.49 0-.736-.243-.736-.73V15.532zM88.715 15.8l-.012-.05a1.748 1.748 0 00-.036-.12 7.702 7.702 0 01-.024-.16 1.086 1.086 0 01-.011-.145c0-.154.05-.276.154-.365.11-.098.273-.147.486-.147h2.136c.19 0 .344.05.462.146.119.098.214.236.285.415l.213.547.534 1.559c.206.576.416 1.172.63 1.79l.64 1.826.605 1.704.51 1.412c.15.406.269.719.356.938.134-.398.289-.852.463-1.364a366.655 366.655 0 001.21-3.445l.629-1.814c.205-.593.399-1.157.58-1.693.19-.543.36-1.034.511-1.473.08-.195.174-.333.285-.414.118-.089.276-.134.474-.134h2.219c.245 0 .411.041.498.122a.396.396 0 01.142.317c0 .065-.011.146-.035.243-.016.098-.032.17-.048.22l-5.647 14.073a1.805 1.805 0 01-.237.33c-.087.105-.253.157-.498.157h-1.092c-.284 0-.478-.048-.581-.146a1.114 1.114 0 01-.214-.34l-5.588-13.99zM119.743 29.557a.652.652 0 01-.32.585 1.246 1.246 0 01-.332.11 2.823 2.823 0 01-.38.023h-1.483c-.253 0-.431-.069-.534-.206a1.486 1.486 0 01-.213-.524l-.072-1.035a7.535 7.535 0 01-.925.804 6.823 6.823 0 01-1.08.645 6.135 6.135 0 01-1.233.414 5.67 5.67 0 01-1.341.158c-.712 0-1.4-.093-2.064-.28a8.214 8.214 0 01-1.851-.803 7.928 7.928 0 01-1.578-1.255 8.331 8.331 0 01-1.21-1.619 8.637 8.637 0 01-.783-1.911 8.225 8.225 0 01-.273-2.13c0-.74.091-1.45.273-2.131.19-.682.451-1.32.783-1.912a8.014 8.014 0 011.21-1.607 7.589 7.589 0 011.578-1.242 7.544 7.544 0 011.851-.803 7.294 7.294 0 012.064-.292c.506 0 .989.056 1.447.17a5.5 5.5 0 011.282.463 5.39 5.39 0 011.115.718c.34.276.648.58.925.913l.166-1.303a5.08 5.08 0 01.107-.353.872.872 0 01.131-.231.38.38 0 01.201-.11c.079-.024.178-.036.297-.036h1.186c.127 0 .253.012.38.036.126.025.241.065.344.122a.52.52 0 01.237.22.57.57 0 01.095.34v14.062zm-12.338-7.025c0 .65.111 1.266.332 1.85.222.577.53 1.084.925 1.523.396.438.859.787 1.388 1.047a4.095 4.095 0 001.756.377c.641 0 1.238-.126 1.792-.377a4.666 4.666 0 001.459-1.047c.411-.439.736-.946.973-1.522a4.877 4.877 0 00.356-1.85c0-.642-.119-1.25-.356-1.827a4.926 4.926 0 00-.973-1.534 4.666 4.666 0 00-1.459-1.047 4.167 4.167 0 00-1.792-.39c-.632 0-1.218.13-1.756.39-.529.26-.992.609-1.388 1.047-.395.438-.703.95-.925 1.534a5.057 5.057 0 00-.332 1.826zM122.853 15.532c0-.114.048-.236.143-.366.095-.13.186-.21.273-.243.063-.065.158-.097.284-.097.127-.008.245-.013.356-.013h1.198c.23 0 .4.077.511.232.11.154.185.324.225.511l.13 1.29c.182-.275.404-.547.665-.815.269-.268.585-.507.949-.718a5.308 5.308 0 011.246-.512c.466-.13.992-.194 1.577-.194.934 0 1.764.174 2.492.523.727.34 1.34.812 1.839 1.412.498.6.874 1.307 1.127 2.119.261.811.391 1.684.391 2.617v8.12c0 .293-.067.512-.201.658-.135.146-.329.22-.582.22h-1.803c-.316 0-.53-.061-.641-.183-.102-.122-.154-.337-.154-.645v-8.109c0-.43-.071-.848-.213-1.254a3.4 3.4 0 00-.629-1.108 2.957 2.957 0 00-1.009-.779c-.403-.195-.87-.292-1.4-.292-.363 0-.743.077-1.138.231a3.588 3.588 0 00-1.068.633 3.473 3.473 0 00-.807 1.01c-.213.39-.324.833-.332 1.328v7.89c0 .153-.008.307-.024.462a1.308 1.308 0 01-.107.414.659.659 0 01-.213.292.588.588 0 01-.368.11h-1.957c-.261 0-.455-.061-.582-.183-.118-.13-.178-.313-.178-.548V15.532zM138.423 22.569c0-.739.091-1.449.273-2.13.19-.69.455-1.332.795-1.924a7.743 7.743 0 011.222-1.608c.474-.486 1-.9 1.578-1.241a7.55 7.55 0 011.85-.804 7.347 7.347 0 012.076-.292c.712 0 1.4.097 2.065.292a7.294 7.294 0 011.85.804c.578.34 1.104.755 1.578 1.241a7.743 7.743 0 011.222 1.608c.34.592.601 1.233.783 1.923a7.9 7.9 0 01.285 2.13 7.9 7.9 0 01-.285 2.131 7.932 7.932 0 01-.783 1.912 8.196 8.196 0 01-1.222 1.607c-.474.487-1 .905-1.578 1.254a7.922 7.922 0 01-1.85.803 7.601 7.601 0 01-2.065.28 7.644 7.644 0 01-2.076-.28 8.225 8.225 0 01-1.85-.803 7.872 7.872 0 01-1.578-1.254 8.196 8.196 0 01-1.222-1.607 8.299 8.299 0 01-.795-1.912 8.226 8.226 0 01-.273-2.13zm3.346 0c0 .65.11 1.266.332 1.85.221.577.53 1.08.925 1.51.396.43.862.771 1.4 1.023a4.2 4.2 0 001.78.377c.624 0 1.202-.126 1.732-.377.537-.252 1-.593 1.388-1.023.387-.43.688-.933.901-1.51a5.166 5.166 0 00.333-1.85c0-.641-.111-1.254-.333-1.839a4.749 4.749 0 00-.901-1.534 4.3 4.3 0 00-1.388-1.059 3.787 3.787 0 00-1.732-.402c-.641 0-1.234.134-1.78.402a4.424 4.424 0 00-1.4 1.06c-.395.438-.704.949-.925 1.533a5.132 5.132 0 00-.332 1.839z" fill="currentColor"></path></svg>